<svg xmlns="http://www.w3.org/2000/svg" viewBox="0 0 360 64" fill="none">
  <style>
    @import url('https://fonts.googleapis.com/css2?family=Inter:wght@600');
    .wordmark { font-family: 'Inter', -apple-system, BlinkMacSystemFont, 'Segoe UI', sans-serif; font-weight: 600; font-size: 32px; }
  </style>
  <!-- Mark — black rounded square -->
  <rect width="64" height="64" rx="14" fill="#0A0A0A"/>
  <rect x="2" y="2" width="60" height="60" rx="12" stroke="#2A2A2A" stroke-width="0.5" fill="none"/>
  <!-- Rocket — white -->
  <path d="M32 12C32 12 22 22 22 36C22 42 26 47 32 47C38 47 42 42 42 36C42 22 32 12 32 12Z" fill="#FFFFFF"/>
  <!-- Window — black cutout with green ring -->
  <circle cx="32" cy="30" r="5" fill="#0A0A0A"/>
  <circle cx="32" cy="30" r="5" stroke="#00E676" stroke-width="0.8" fill="none"/>
  <!-- Smile — green -->
  <path d="M24 51C24 51 28 55.5 32 55.5C36 55.5 40 51 40 51" stroke="#00E676" stroke-width="2" stroke-linecap="round" fill="none"/>
  <!-- Exhaust — gray -->
  <path d="M28 47L26 53L30 49Z" fill="#6B6B6B"/>
  <path d="M36 47L38 53L34 49Z" fill="#6B6B6B"/>
  <!-- Wordmark -->
  <text x="80" y="42" class="wordmark" fill="#0A0A0A">happy</text>
  <text x="188" y="42" class="wordmark" fill="#00E676">-lunch</text>
</svg>
