<svg xmlns="http://www.w3.org/2000/svg" viewBox="0 0 512 512" fill="none">
  <!-- App icon background — black -->
  <rect width="512" height="512" rx="112" fill="#0A0A0A"/>
  <!-- Depth border -->
  <rect x="8" y="8" width="496" height="496" rx="104" stroke="#2A2A2A" stroke-width="2" fill="none"/>
  <!-- Rocket body — white -->
  <path d="M256 96C256 96 176 176 176 288C176 336 208 376 256 376C304 376 336 336 336 288C336 176 256 96 256 96Z" fill="#FFFFFF"/>
  <!-- Rocket edge line for depth -->
  <path d="M256 96C256 96 176 176 176 288C176 336 208 376 256 376C304 376 336 336 336 288C336 176 256 96 256 96Z" stroke="#E0E0E0" stroke-width="2" fill="none"/>
  <!-- Window/porthole — black cutout -->
  <circle cx="256" cy="240" r="40" fill="#0A0A0A"/>
  <!-- Window ring — green highlight -->
  <circle cx="256" cy="240" r="40" stroke="#00E676" stroke-width="4" fill="none"/>
  <!-- Smile arc — bright green highlight -->
  <path d="M192 404C192 404 224 444 256 444C288 444 320 404 320 404" stroke="#00E676" stroke-width="16" stroke-linecap="round" fill="none"/>
  <!-- Left exhaust — gray -->
  <path d="M224 376L208 424L240 392Z" fill="#6B6B6B"/>
  <!-- Right exhaust — gray -->
  <path d="M288 376L304 424L272 392Z" fill="#6B6B6B"/>
</svg>
